<svg xmlns="http://www.w3.org/2000/svg" viewBox="0 0 1384.74 776.47"><defs><style>.cls-1{fill:#363636;}</style></defs><title>cassiegalvez</title><g id="cassiegalvezlogo"><path class="cls-1" d="M1391.19,338.53c1.07-56.42,7.86-89.27,23.57-89.27,16.07,0,17.15,25.7,17.15,78.92v10.35Zm112.13,50.35c0-20.71-16.79-35.35-37.85-35.35S1428,369.24,1428,388.87c0,20,17.86,35,37.14,35h3.57c1.42,0,2.14.36,2.14,1.79,0,9.28-20.36,17.5-38.21,17.5-27.85,0-41.78-15.35-41.78-89.62a88.37,88.37,0,0,1,.35-9.64H1503V332.46c0-39.28-31.06-87.85-86.41-87.85-51.42,0-101.05,42.49-101.05,106.06,0,66.77,53.92,98.2,105.7,98.2,52.49,0,82.13-29.65,82.13-60m-200,50H1293c-8.57,0-12.85-7.14-12.85-16.79V250.33h-98.91V255h9.64c9.64,0,14.64,6.07,14.64,15.71V422.08c0,9.64-6.78,16.79-17.14,16.79h-10.71v4.65h125.69ZM1282.29,201c0-20-18.57-36.07-41.42-36.07-23.22,0-41.79,16.07-41.79,36.07,0,20.36,18.57,36.42,41.79,36.42,22.85,0,41.42-16.06,41.42-36.42M1162,379.94c0-86.05-115.34-53.56-115.34-107.83,0-15.36,15-25,32.14-25,12.14,0,21.78,4.65,21.78,9.29,0,3.21-3.21,5-6.43,8.21a22.21,22.21,0,0,0-7.49,17.15c0,15,15.71,26.07,31.78,26.07,17.85,0,31.06-12.14,31.06-27.5,0-21.07-25.7-37.13-70-37.13-42.85,0-89.27,19.63-89.27,68.2,0,86.41,117.12,56.42,117.12,108.91,0,15.71-9.28,27.14-27.85,27.14-48.56,0-82.84-68.2-87.49-91.77h-2.85v90h3.21c1.07-2.86,5-10.72,20.36-10.72,17.85,0,39.63,16.79,71.05,16.79,44.64,0,78.21-28.92,78.21-71.78m-200.69,0c0-86.05-115.34-53.56-115.34-107.83,0-15.36,15-25,32.15-25,12.14,0,21.78,4.65,21.78,9.29,0,3.21-3.22,5-6.43,8.21a22.18,22.18,0,0,0-7.49,17.15c0,15,15.71,26.07,31.77,26.07,17.86,0,31.07-12.14,31.07-27.5,0-21.07-25.71-37.13-70-37.13-42.85,0-89.27,19.63-89.27,68.2,0,86.41,117.12,56.42,117.12,108.91,0,15.71-9.28,27.14-27.85,27.14-48.57,0-82.84-68.2-87.49-91.77h-2.86v90h3.21c1.07-2.86,5-10.72,20.36-10.72,17.86,0,39.64,16.79,71.06,16.79,44.64,0,78.2-28.92,78.2-71.78M683.1,324.6V386c0,23.93-16.07,52.49-27.14,52.49-8.93,0-10.35-3.57-10.35-44.28,0-47.85,16.78-54.28,23.21-59.27,7.5-5.72,12.5-12.14,13.21-12.14,1.07,0,1.07.71,1.07,1.79m206,172.11c0-19.28-16.07-36.78-36.78-36.78-20,0-37.49,15-37.49,36.78,0,19.28,16.42,33.56,36.42,33.56,3.22,0,5-.35,5,1.79,0,6.79-16.43,16.78-33.57,16.78-39.64,0-68.56-27.14-68.56-101.76V302.82c0-38.22-33.92-57.5-83.19-57.5-58.21,0-85,25.35-85,51.78,0,23.57,18.21,38.21,37.49,38.21,19.63,0,36.42-17.14,36.42-37.49,0-17.14-13.21-32.14-31.06-32.14-1.43,0-2.86.36-3.93.36-.71,0-1.42-.36-1.42-2.15,0-5.36,17.86-14.64,34.28-14.64s26.78,6.07,26.78,38.21c0,44.64-25.35,50-45,55s-68.2,7.14-68.2,54.28c0,30.35,24.63,51.07,62.13,51.07,25.7,0,33.92-9.29,40.34-18.93a84,84,0,0,0,9.64-18.92V431c0,77.85,44.29,123.19,128.2,123.19,47.85,0,77.48-28.56,77.48-57.49M548.48,333.88c0,59.64-44.28,112.13-100,112.13-45,0-71.78-44.29-71.78-136.06s18.93-153.54,60-153.54c68.2,0,102.49,108.56,102.49,127.48v7.86h4.28V155H542s-5.36,19.63-27.49,19.63c-28.92,0-42.5-22.85-82.49-22.85-71.78,0-151,70-151,153.55,0,83.2,66.42,146,160.34,146,77.12,0,112.83-65.35,112.83-117.49Z" transform="translate(-281.02 -151.76)"/></g><g id="galvez"><path class="cls-1" d="M1665.76,724c0-19.28-16.06-36.78-36.77-36.78-20,0-37.5,15-37.5,36.78,0,19.28,16.07,33.56,36.07,33.56,3.57,0,5.36-.35,5.36,1.79,0,6.79-12.14,16.79-37.85,16.79h-47.49l103.91-188.54H1474V669h3.21v-8.58c0-30,40-68.2,72.85-68.2h14.28L1464,780.76h129.62c48.92,0,72.13-27.85,72.13-56.78M1334,675.77c1.07-56.42,7.86-89.27,23.57-89.27,16.07,0,17.15,25.71,17.15,78.92v10.35Zm112.13,50.35c0-20.71-16.79-35.35-37.85-35.35s-37.49,15.71-37.49,35.35c0,20,17.86,35,37.14,35h3.56c1.43,0,2.15.36,2.15,1.79,0,9.29-20.36,17.5-38.21,17.5-27.85,0-41.78-15.35-41.78-89.62a88.33,88.33,0,0,1,.35-9.64H1445.8V669.7c0-39.28-31.06-87.85-86.41-87.85-51.42,0-101.05,42.5-101.05,106.06,0,66.78,53.92,98.2,105.7,98.2,52.49,0,82.13-29.64,82.13-60m-2.86-208.9c0-29.28-22.85-61.77-71.78-61.77-68.92,0-107.48,68.55-132.12,141.76-16.06,48.21-26.43,98.55-35.71,132.47l-42.14-123.91a13.92,13.92,0,0,1-.71-5.36c0-5,2.86-8.22,6.78-8.22H1178v-4.64H1049.79v4.64H1058c3.57,0,9.64,1.79,13.21,11.08l67.84,177.47h56.42s23.22-93.21,51.78-164.26c30-75.71,73.56-153.19,136.41-153.19,23.93,0,39.28,14.29,39.28,26.78,0,3.22-.71,4.28-2.14,4.28-2.86,0-7.5-5-20-5-19.64,0-36.78,14.64-36.78,36.78,0,19.28,15,35,37.13,35,27.5,0,42.14-20.71,42.14-43.92M1154.43,834c0-19.28-16.07-36.78-36.78-36.78-19.64,0-37.49,15-37.49,36.78,0,19.28,16.42,33.57,36.42,33.57,3.21,0,5-.36,5,1.79,0,6.78-16.42,16.78-33.56,16.78-39.64,0-65.35-27.85-65.35-102.48V495.44H924.46v4.65h9.28c10,0,15,6.07,15,15.71V768.26c0,77.85,44.28,123.19,128.19,123.19,47.86,0,77.49-28.56,77.49-57.49M814.48,661.85v61.42c0,23.92-16.07,52.49-27.14,52.49-8.93,0-10.35-3.57-10.35-44.29,0-47.85,16.78-54.28,23.21-59.27,7.5-5.71,12.5-12.14,13.21-12.14,1.07,0,1.07.71,1.07,1.79m95.34,67.49v5c0,24.64-9.28,41.06-16.79,41.06-4.28,0-7.49-3.57-7.49-12.85V640.07c0-38.22-33.93-57.5-83.2-57.5-58.21,0-85,25.35-85,51.78,0,23.57,18.21,38.22,37.49,38.22,19.64,0,36.42-17.15,36.42-37.5,0-17.14-13.2-32.14-31.06-32.14-1.42,0-2.86.36-3.92.36-.72,0-1.43-.36-1.43-2.15,0-5.36,17.86-14.64,34.28-14.64s26.78,6.07,26.78,38.21c0,44.64-25.35,50-45,55s-68.2,7.14-68.2,54.28c0,30.36,24.64,51.07,62.13,51.07,25.7,0,33.92-9.28,40.35-18.92,6.42-9.29,8.57-18.93,10-18.93,1.07,0,8.22,38.93,54.28,38.93,37.85,0,45-21.78,45-56.78Zm-215-92.13H544.53v4.65h17.14c10.35,0,21.78,5.36,21.78,21.42V739c0,29.28-18.56,42.49-47.49,42.49-35.36,0-52.49-37.85-52.49-136,0-97.85,22.49-151.77,64.63-151.77,61.77,0,96.42,84.63,100.7,112.13l2.85.36.36-115H648.8c0,4.65-6.43,17.86-25.71,17.86-25.35,0-40-20.36-75.7-20.36-75,0-157.48,67.49-157.48,155.69,0,75,66.42,142.12,137.48,142.12,29.64,0,44.28-7.14,56.05-15V780c0,79.63-28.92,139.26-96.06,139.26-33.21,0-58.2-21.07-58.2-36.06,0-1.79.71-2.51,2.14-2.51,2.86,0,8.22,2.51,17.5,2.51C472,883.24,491,866.81,491,843.6c0-21.07-17.85-40-42.85-40a46.71,46.71,0,0,0-46.42,47.13c0,36.07,31.78,77.48,110,77.48,83.55,0,155-53.2,155-144.61V659c0-10.72,8.93-17.14,18.93-17.14h9.28Z" transform="translate(-281.02 -151.76)"/></g></svg>