<svg id="flower" xmlns="http://www.w3.org/2000/svg" viewBox="0 0 999.85 999.84"><defs><style>.flower{fill:#fff;}</style></defs><title>flower</title><path class="flower" d="M999.85,499.92c0-75.13-54.9-112.7-127.15-112.7-78,0-141.6,101.15-315,101.15H543.27l14.45-14.45C664.64,367,794.68,367,843.81,315c23.12-26,40.45-54.91,40.45-92.47,0-57.8-49.13-109.81-109.81-109.81-34.68,0-66.47,20.23-89.59,43.35-52,52-31.78,170.49-153.15,294.75L511.48,471c0-190.72,101.14-248.52,101.14-338.1C612.62,69.36,572.17,0,499.93,0S390.11,69.36,390.11,132.92c0,89.59,86.7,147.38,86.7,294.75v31.78l-20.23-17.33c-104-106.93-78-323.65-234.07-323.65-57.79,0-106.92,43.34-106.92,101.14,0,147.38,213.84,141.59,317.87,245.63l23.12,23.12c-182,0-234.07-101.15-323.65-101.15C66.47,387.22,0,427.68,0,499.92S69.36,609.72,132.93,609.72c89.58,0,147.38-86.69,294.75-86.69h31.78l-20.23,20.23c-104,104-323.65,78-323.65,234.06,0,57.8,43.35,104,104,104,150.26,0,132.93-205.17,257.19-326.54,0,170.49-89.59,242.74-89.59,320.76,0,63.58,43.35,124.26,112.7,124.26,75.13,0,112.69-54.9,112.69-124.26,0-78-101.14-144.49-101.14-317.87V543.27l14.45,14.44c106.92,106.93,106.92,237,158.93,286.09,23.12,26,54.9,40.46,89.59,40.46,60.68,0,112.69-49.13,112.69-106.93,0-37.56-20.22-66.46-43.34-92.46-52-52-173.38-28.91-294.75-153.16L540.38,523c176.28,0,254.3,89.58,332.32,89.58,66.47,0,127.15-43.35,127.15-112.7"/></svg>